{
	"asset":{
		"generator":"Khronos glTF Blender I/O v3.6.28",
		"version":"2.0"
	},
	"scene":0,
	"scenes":[
		{
			"name":"Scene",
			"nodes":[
				0
			]
		}
	],
	"nodes":[
		{
			"mesh":0,
			"name":"Cube.003"
		}
	],
	"materials":[
		{
			"doubleSided":true,
			"name":"Material.002",
			"pbrMetallicRoughness":{
				"baseColorFactor":[
					0.8000000715255737,
					2.0014100639382377267,
					0,
					1
				],
				"metallicFactor":0,
				"roughnessFactor":0.5
			}
		}
	],
	"meshes":[
		{
			"name":"Cube.003",
			"primitives":[
				{
					"attributes":{
						"POSITION":0,
						"NORMAL":1,
						"TEXCOORD_0":2
					},
					"indices":3,
					"material":0
				}
			]
		}
	],
	"accessors":[
		{
			"bufferView":0,
			"componentType":5126,
			"count":12496,
			"max":[
				1.0470681190490723,
				0.1150210052728653,
				0.9356954097747803
			],
			"min":[
				-1.0769890546798706,
				-0.2077060490846634,
				-1.0055111646652222
			],
			"type":"VEC3"
		},
		{
			"bufferView":1,
			"componentType":5126,
			"count":12496,
			"type":"VEC3"
		},
		{
			"bufferView":2,
			"componentType":5126,
			"count":12496,
			"type":"VEC2"
		},
		{
			"bufferView":3,
			"componentType":5123,
			"count":21504,
			"type":"SCALAR"
		}
	],
	"bufferViews":[
		{
			"buffer":0,
			"byteLength":149952,
			"byteOffset":0,
			"target":34962
		},
		{
			"buffer":0,
			"byteLength":149952,
			"byteOffset":149952,
			"target":34962
		},
		{
			"buffer":0,
			"byteLength":99968,
			"byteOffset":299904,
			"target":34962
		},
		{
			"buffer":0,
			"byteLength":43008,
			"byteOffset":399872,
			"target":34963
		}
	],
	"buffers":[
		{
			"byteLength":442880,
			"uri":"data:application/octet-stream;base64,"
		}
	]
}
