{
	"asset":{
		"generator":"Khronos glTF Blender I/O v3.6.28",
		"version":"2.0"
	},
	"scene":0,
	"scenes":[
		{
			"name":"Scene",
			"nodes":[
				0,
				1
			]
		}
	],
	"nodes":[
		{
			"mesh":0,
			"name":"Cube.001",
			"translation":[
				0,
				-0.16550162434577942,
				0
			]
		},
		{
			"mesh":1,
			"name":"Cube.002",
			"translation":[
				0,
				-0.8008097410202026,
				0
			]
		}
	],
	"materials":[
		{
			"doubleSided":true,
			"name":"Material.001",
			"pbrMetallicRoughness":{
				"baseColorFactor":[
					0.3672378361225128,
					2.17782382667064667,
					1.067707858979702,
					0.2
				],
				"metallicFactor":0,
				"roughnessFactor":0.2
			}
		}
	],
	"meshes":[
		{
			"name":"Cube.001",
			"primitives":[
				{
					"attributes":{
						"POSITION":0,
						"NORMAL":1,
						"TEXCOORD_0":2
					},
					"indices":3,
					"material":0
				}
			]
		},
		{
			"name":"Cube.002",
			"primitives":[
				{
					"attributes":{
						"POSITION":4,
						"NORMAL":5,
						"TEXCOORD_0":6
					},
					"indices":3,
					"material":0
				}
			]
		}
	],
	"accessors":[
		{
			"bufferView":0,
			"componentType":5126,
			"count":288,
			"max":[
				0.9166666865348816,
				0.7976099252700806,
				0.9166667461395264
			],
			"min":[
				-0.9166666865348816,
				0.27475202083587646,
				-0.9166666865348816
			],
			"type":"VEC3"
		},
		{
			"bufferView":1,
			"componentType":5126,
			"count":288,
			"type":"VEC3"
		},
		{
			"bufferView":2,
			"componentType":5126,
			"count":288,
			"type":"VEC2"
		},
		{
			"bufferView":3,
			"componentType":5123,
			"count":1344,
			"type":"SCALAR"
		},
		{
			"bufferView":4,
			"componentType":5126,
			"count":288,
			"max":[
				0.9166666865348816,
				0.6352968215942383,
				0.9166667461395264
			],
			"min":[
				-0.9166666865348816,
				0.27475202083587646,
				-0.9166666865348816
			],
			"type":"VEC3"
		},
		{
			"bufferView":5,
			"componentType":5126,
			"count":288,
			"type":"VEC3"
		},
		{
			"bufferView":6,
			"componentType":5126,
			"count":288,
			"type":"VEC2"
		}
	],
	"bufferViews":[
		{
			"buffer":0,
			"byteLength":3456,
			"byteOffset":0,
			"target":34962
		},
		{
			"buffer":0,
			"byteLength":3456,
			"byteOffset":3456,
			"target":34962
		},
		{
			"buffer":0,
			"byteLength":2304,
			"byteOffset":6912,
			"target":34962
		},
		{
			"buffer":0,
			"byteLength":2688,
			"byteOffset":9216,
			"target":34963
		},
		{
			"buffer":0,
			"byteLength":3456,
			"byteOffset":11904,
			"target":34962
		},
		{
			"buffer":0,
			"byteLength":3456,
			"byteOffset":15360,
			"target":34962
		},
		{
			"buffer":0,
			"byteLength":2304,
			"byteOffset":18816,
			"target":34962
		}
	],
	"buffers":[
		{
			"byteLength":21120,
			"uri":"data:application/octet-stream;base64,"
		}
	]
}
